PathFileType	4	(X/Y/Z)	 1.9Hzlow3min.trc
DataRate	CameraRate	NumFrames	NumMarkers	Units	OrigDataRate	OrigDataStartFrame	OrigNumFrames
200	200	11	35	m	200	876	1000
Frame#	Time	C7			LSH			RSH			MAN			RASI			LASI			HIPR			HIPL			RPSI			LPSI			COX			RTHI1			RTHI2			RTHI3			RTHI4			RSHA1			RSHA2			RSHA3			RSHA4			RHEEL			RMET5			RMET1			RTOE			LTHI1			LTHI2			LTHI3			LTHI4			LSHA1			LSHA2			LSHA3			LSHA4			LHEEL			LMET5			LMET1			LTOE			
		X1	Y1	Z1	X2	Y2	Z2	X3	Y3	Z3	X4	Y4	Z4	X5	Y5	Z5	X6	Y6	Z6	X7	Y7	Z7	X8	Y8	Z8	X9	Y9	Z9	X10	Y10	Z10	X11	Y11	Z11	X12	Y12	Z12	X13	Y13	Z13	X14	Y14	Z14	X15	Y15	Z15	X16	Y16	Z16	X17	Y17	Z17	X18	Y18	Z18	X19	Y19	Z19	X20	Y20	Z20	X21	Y21	Z21	X22	Y22	Z22	X23	Y23	Z23	X24	Y24	Z24	X25	Y25	Z25	X26	Y26	Z26	X27	Y27	Z27	X28	Y28	Z28	X29	Y29	Z29	X30	Y30	Z30	X31	Y31	Z31	X32	Y32	Z32	X33	Y33	Z33	X34	Y34	Z34	X35	Y35	Z35	
876	4.3800	-0.296103	1.641264	-0.555991	-0.249740	1.627120	-0.784051	-0.232093	1.620558	-0.353524	-0.145669	1.585818	-0.566619	-0.136904	1.133342	-0.452223	-0.128003	1.130345	-0.666665	-0.188430	1.188380	-0.405681	-0.190378	1.186212	-0.727472	-0.317643	1.169451	-0.507091	-0.319694	1.164465	-0.621674	-0.325207	1.175303	-0.560752	-0.236796	0.879472	-0.369105	-0.222456	0.823519	-0.353998	-0.159711	0.839138	-0.344198	-0.166325	0.898387	-0.360537	-0.331692	0.421193	-0.355373	-0.326181	0.380219	-0.365429	-0.269176	0.389677	-0.346203	-0.276622	0.428389	-0.340238	-0.401188	0.107193	-0.434631	-0.245117	0.027571	-0.337635	-0.190164	0.042134	-0.417100	-0.162810	0.031089	-0.412500	-0.185576	0.875428	-0.780921	-0.169714	0.816505	-0.790505	-0.107003	0.825799	-0.778639	-0.114041	0.884750	-0.767802	-0.254718	0.416202	-0.790280	-0.270881	0.379221	-0.786994	-0.210885	0.360721	-0.780974	-0.202254	0.403923	-0.785457	-0.377575	0.105743	-0.713736	-0.219356	0.026085	-0.800121	-0.160148	0.037616	-0.721837	-0.133445	0.028493	-0.727653	
877	4.3850	-0.296510	1.645983	-0.556246	-0.250290	1.632318	-0.784045	-0.232533	1.625786	-0.353898	-0.146094	1.591108	-0.566890	-0.135988	1.138518	-0.452230	-0.127204	1.135380	-0.666628	-0.187440	1.193866	-0.405872	-0.189397	1.191651	-0.727450	-0.316707	1.174708	-0.507060	-0.318720	1.169705	-0.621693	-0.324286	1.180535	-0.560744	-0.237144	0.884714	-0.369234	-0.223188	0.828633	-0.354252	-0.160320	0.843758	-0.344599	-0.166526	0.903094	-0.360795	-0.333475	0.425058	-0.355870	-0.327650	0.384055	-0.365725	-0.270838	0.394029	-0.346176	-0.278616	0.432728	-0.340474	-0.399555	0.110893	-0.433782	-0.244773	0.027823	-0.337960	-0.190149	0.042243	-0.416887	-0.163003	0.031258	-0.412313	-0.185956	0.880286	-0.780870	-0.170456	0.821265	-0.790317	-0.107721	0.830137	-0.778326	-0.114397	0.889151	-0.767608	-0.256119	0.420222	-0.790372	-0.271907	0.383076	-0.787170	-0.211722	0.365155	-0.781346	-0.203520	0.408459	-0.785679	-0.375999	0.109394	-0.715032	-0.219034	0.026260	-0.799879	-0.160162	0.037661	-0.722003	-0.133601	0.028560	-0.727708	
878	4.3900	-0.296894	1.650596	-0.556503	-0.250804	1.637371	-0.784042	-0.232966	1.630830	-0.354277	-0.146518	1.596274	-0.567163	-0.135142	1.143536	-0.452223	-0.126476	1.140293	-0.666588	-0.186579	1.199178	-0.406051	-0.188499	1.196980	-0.727442	-0.315835	1.179831	-0.507061	-0.317804	1.174834	-0.621719	-0.323422	1.185662	-0.560762	-0.237439	0.889839	-0.369312	-0.223840	0.833632	-0.354455	-0.160849	0.848284	-0.344983	-0.166682	0.907709	-0.361027	-0.335223	0.428833	-0.356313	-0.328989	0.387788	-0.366049	-0.272384	0.398316	-0.346135	-0.280506	0.437004	-0.340682	-0.397817	0.114600	-0.432928	-0.244389	0.028134	-0.338311	-0.190137	0.042390	-0.416682	-0.163187	0.031464	-0.412079	-0.186301	0.885058	-0.780842	-0.171132	0.825952	-0.790146	-0.108385	0.834438	-0.778008	-0.114732	0.893499	-0.767409	-0.257413	0.424229	-0.790509	-0.272813	0.386912	-0.787420	-0.212437	0.369570	-0.781726	-0.204673	0.412964	-0.785902	-0.374320	0.113043	-0.716354	-0.218670	0.026476	-0.799634	-0.160166	0.037719	-0.722162	-0.133766	0.028629	-0.727781	
879	4.3950	-0.297255	1.655087	-0.556760	-0.251281	1.642264	-0.784041	-0.233385	1.635679	-0.354660	-0.146936	1.601297	-0.567435	-0.134343	1.148424	-0.452221	-0.125816	1.145073	-0.666548	-0.185839	1.204281	-0.406217	-0.187686	1.202169	-0.727434	-0.315045	1.184797	-0.507081	-0.316946	1.179834	-0.621749	-0.322619	1.190669	-0.560791	-0.237686	0.894816	-0.369328	-0.224416	0.838485	-0.354601	-0.161299	0.852705	-0.345355	-0.166792	0.912200	-0.361231	-0.336872	0.432518	-0.356748	-0.330194	0.391394	-0.366409	-0.273817	0.402512	-0.346085	-0.282325	0.441206	-0.340900	-0.395981	0.118268	-0.432003	-0.243953	0.028519	-0.338687	-0.190124	0.042595	-0.416492	-0.163353	0.031730	-0.411802	-0.186619	0.889721	-0.780830	-0.171751	0.830540	-0.789996	-0.109004	0.838676	-0.777683	-0.115053	0.897781	-0.767215	-0.258600	0.428174	-0.790643	-0.273611	0.390700	-0.787738	-0.213049	0.373935	-0.782117	-0.205730	0.417430	-0.786126	-0.372556	0.116672	-0.717709	-0.218265	0.026736	-0.799394	-0.160156	0.037788	-0.722314	-0.133928	0.028711	-0.727872	
880	4.4000	-0.297592	1.659434	-0.557015	-0.251723	1.646987	-0.784044	-0.233783	1.640315	-0.355043	-0.147351	1.606157	-0.567706	-0.133646	1.153252	-0.452209	-0.125207	1.149717	-0.666513	-0.185217	1.209150	-0.406369	-0.186961	1.207196	-0.727441	-0.314308	1.189631	-0.507132	-0.316149	1.184687	-0.621782	-0.321876	1.195537	-0.560826	-0.237883	0.899636	-0.369283	-0.224919	0.843173	-0.354703	-0.161676	0.857001	-0.345706	-0.166859	0.916549	-0.361420	-0.338382	0.436054	-0.357119	-0.331263	0.394851	-0.366809	-0.275156	0.406600	-0.346032	-0.284049	0.445270	-0.341108	-0.394074	0.121893	-0.431005	-0.243444	0.029009	-0.339099	-0.190111	0.042889	-0.416326	-0.163502	0.032090	-0.411482	-0.186917	0.894263	-0.780833	-0.172317	0.835000	-0.789848	-0.109589	0.842825	-0.777358	-0.115357	0.901976	-0.767026	-0.259694	0.432043	-0.790780	-0.274309	0.394402	-0.788053	-0.213573	0.378228	-0.782520	-0.206699	0.421818	-0.786352	-0.370716	0.120257	-0.719103	-0.217817	0.027051	-0.799169	-0.160127	0.037873	-0.722464	-0.134080	0.028793	-0.727971	
881	4.4050	-0.297900	1.663628	-0.557268	-0.252136	1.651529	-0.784047	-0.234153	1.644731	-0.355425	-0.147757	1.610837	-0.567972	-0.133001	1.157909	-0.452204	-0.124652	1.154214	-0.666483	-0.184697	1.213751	-0.406501	-0.186321	1.212032	-0.727462	-0.313665	1.194275	-0.507141	-0.315417	1.189367	-0.621815	-0.321191	1.200249	-0.560860	-0.238042	0.904280	-0.369191	-0.225351	0.847696	-0.354761	-0.161984	0.861153	-0.346045	-0.166890	0.920736	-0.361596	-0.339774	0.439475	-0.357475	-0.332205	0.398171	-0.367196	-0.276384	0.410560	-0.345969	-0.285661	0.449279	-0.341306	-0.392147	0.125461	-0.429933	-0.242848	0.029638	-0.339543	-0.190105	0.043296	-0.416193	-0.163648	0.032595	-0.411114	-0.187206	0.898664	-0.780847	-0.172857	0.839330	-0.789708	-0.110139	0.846865	-0.777043	-0.115647	0.906068	-0.766848	-0.260702	0.435821	-0.790925	-0.274921	0.397994	-0.788337	-0.214019	0.382433	-0.782942	-0.207588	0.426093	-0.786585	-0.368816	0.123782	-0.720531	-0.217341	0.027405	-0.798953	-0.160079	0.037981	-0.722615	-0.134224	0.028874	-0.728091	
882	4.4100	-0.298182	1.667653	-0.557514	-0.252527	1.655872	-0.784046	-0.234513	1.648974	-0.355813	-0.148159	1.615323	-0.568232	-0.132409	1.162359	-0.452200	-0.124147	1.158542	-0.666457	-0.184254	1.218093	-0.406616	-0.185767	1.216652	-0.727494	-0.313042	1.198701	-0.507189	-0.314751	1.193869	-0.621853	-0.320561	1.204779	-0.560899	-0.238162	0.908734	-0.369068	-0.225729	0.852020	-0.354802	-0.162238	0.865134	-0.346376	-0.166892	0.924752	-0.361765	-0.341047	0.442709	-0.357831	-0.333048	0.401345	-0.367516	-0.277494	0.414374	-0.345894	-0.287157	0.453084	-0.341436	-0.390231	0.128944	-0.428775	-0.242145	0.030421	-0.340022	-0.190115	0.043855	-0.416099	-0.163798	0.033300	-0.410703	-0.187494	0.902903	-0.780872	-0.173364	0.843513	-0.789573	-0.110668	0.850780	-0.776742	-0.115937	0.910032	-0.766689	-0.261631	0.439480	-0.791075	-0.275462	0.401471	-0.788628	-0.214400	0.386518	-0.783382	-0.208411	0.430240	-0.786826	-0.366877	0.127221	-0.721992	-0.216827	0.027809	-0.798751	-0.160011	0.038117	-0.722770	-0.134346	0.028964	-0.728236	
883	4.4150	-0.298439	1.671496	-0.557753	-0.252904	1.660003	-0.784038	-0.234856	1.653035	-0.356204	-0.148551	1.619606	-0.568483	-0.131869	1.166627	-0.452215	-0.123694	1.162694	-0.666439	-0.183856	1.222184	-0.406735	-0.185303	1.221031	-0.727535	-0.312490	1.202940	-0.507230	-0.314151	1.198175	-0.621891	-0.319987	1.209123	-0.560924	-0.238249	0.912977	-0.368922	-0.226058	0.856141	-0.354834	-0.162451	0.868934	-0.346696	-0.166866	0.928576	-0.361930	-0.342195	0.445744	-0.358187	-0.333771	0.404359	-0.367763	-0.278481	0.418020	-0.345806	-0.288544	0.456646	-0.341599	-0.388360	0.132306	-0.427544	-0.241318	0.031392	-0.340533	-0.190144	0.044605	-0.416040	-0.163951	0.034264	-0.410267	-0.187785	0.906972	-0.780903	-0.173857	0.847528	-0.789445	-0.111184	0.854541	-0.776454	-0.116232	0.913846	-0.766548	-0.262481	0.442986	-0.791207	-0.275934	0.404804	-0.788905	-0.214726	0.390448	-0.783842	-0.209169	0.434244	-0.787076	-0.364912	0.130559	-0.723484	-0.216246	0.028296	-0.798558	-0.159925	0.038291	-0.722925	-0.134448	0.029079	-0.728412	
884	4.4200	-0.298670	1.675151	-0.557981	-0.253263	1.663910	-0.784022	-0.235173	1.656905	-0.356592	-0.148928	1.623671	-0.568720	-0.131395	1.170623	-0.452221	-0.123292	1.166655	-0.666430	-0.183473	1.226027	-0.406858	-0.184925	1.225152	-0.727591	-0.311991	1.207001	-0.507243	-0.313620	1.202269	-0.621918	-0.319467	1.213269	-0.560939	-0.238306	0.917005	-0.368786	-0.226346	0.860062	-0.354869	-0.162634	0.872527	-0.347006	-0.166816	0.932208	-0.362099	-0.343242	0.448544	-0.358615	-0.334384	0.407209	-0.367904	-0.279330	0.421474	-0.345715	-0.289800	0.460047	-0.341795	-0.386605	0.135553	-0.426329	-0.240401	0.032560	-0.341050	-0.190187	0.045571	-0.416002	-0.164114	0.035527	-0.409822	-0.188083	0.910860	-0.780942	-0.174349	0.851353	-0.789326	-0.111693	0.858134	-0.776186	-0.116535	0.917485	-0.766421	-0.263258	0.446338	-0.791347	-0.276339	0.407989	-0.789170	-0.214998	0.394208	-0.784316	-0.209858	0.438062	-0.787339	-0.362942	0.133770	-0.724991	-0.215575	0.028894	-0.798367	-0.159828	0.038513	-0.723079	-0.134536	0.029215	-0.728622	
885	4.4250	-0.298878	1.678604	-0.558196	-0.253606	1.667578	-0.783995	-0.235465	1.660582	-0.356973	-0.149285	1.627505	-0.568945	-0.130905	1.174298	-0.452288	-0.122948	1.170404	-0.666431	-0.183075	1.229634	-0.406981	-0.184627	1.228996	-0.727650	-0.311537	1.210835	-0.507255	-0.313158	1.206141	-0.621939	-0.319001	1.217202	-0.560940	-0.238341	0.920797	-0.368678	-0.226602	0.863771	-0.354917	-0.162794	0.875897	-0.347305	-0.166750	0.935629	-0.362270	-0.344174	0.451157	-0.359065	-0.334898	0.409889	-0.367917	-0.280028	0.424711	-0.345619	-0.290860	0.463191	-0.341929	-0.385013	0.138625	-0.425119	-0.239432	0.033927	-0.341537	-0.190237	0.046781	-0.415973	-0.164270	0.037121	-0.409398	-0.188391	0.914547	-0.780985	-0.174860	0.854997	-0.789219	-0.112203	0.861541	-0.775943	-0.116850	0.920934	-0.766308	-0.263956	0.449509	-0.791493	-0.276680	0.411018	-0.789455	-0.215208	0.397784	-0.784805	-0.210477	0.441683	-0.787613	-0.360999	0.136839	-0.726518	-0.214791	0.029621	-0.798161	-0.159729	0.038797	-0.723227	-0.134610	0.029395	-0.728873	
886	4.4300	-0.299068	1.681844	-0.558397	-0.253927	1.671004	-0.783958	-0.235730	1.664055	-0.357344	-0.149625	1.631103	-0.569155	-0.130460	1.177717	-0.452388	-0.122658	1.173923	-0.666443	-0.182645	1.233031	-0.407121	-0.184410	1.232554	-0.727705	-0.311127	1.214441	-0.507258	-0.312766	1.209780	-0.621951	-0.318590	1.220908	-0.560922	-0.238352	0.924345	-0.368603	-0.226833	0.867254	-0.354987	-0.162940	0.879039	-0.347599	-0.166667	0.938830	-0.362447	-0.344934	0.453539	-0.359424	-0.335324	0.412369	-0.367844	-0.280568	0.427713	-0.345525	-0.291746	0.466060	-0.342042	-0.383620	0.141495	-0.423944	-0.238447	0.035477	-0.341954	-0.190262	0.048260	-0.415944	-0.164389	0.039050	-0.409025	-0.188706	0.918020	-0.781032	-0.175376	0.858416	-0.789107	-0.112719	0.864744	-0.775722	-0.117177	0.924167	-0.766214	-0.264571	0.452482	-0.791643	-0.276953	0.413899	-0.789828	-0.215359	0.401151	-0.785300	-0.211022	0.445109	-0.787903	-0.359112	0.139737	-0.728057	-0.213871	0.030499	-0.797923	-0.159638	0.039156	-0.723365	-0.134673	0.029653	-0.729163	
